<mxfile host="app.diagrams.net" modified="2024-07-23T14:06:25.221Z" agent="Mozilla/5.0 (X11; Linux x86_64) AppleWebKit/537.36 (KHTML, like Gecko) Chrome/126.0.0.0 Safari/537.36" version="24.7.1" etag="DrIL46pA6R6NEIuxtvzY" type="github">
  <diagram name="PÃ¡gina-1" id="T6tQK5wBBEPwm8cl0sp9">
    <mxGraphModel>
      <root>
        <mxCell id="0" />
        <mxCell id="1" parent="0" />
      </root>
    </mxGraphModel>
  </diagram>
</mxfile>
